<svg xmlns="http://www.w3.org/2000/svg" width="1024" height="1024" viewBox="0 0 1024 1024">
  <defs>
    <linearGradient id="bg" x1="0" y1="0" x2="0" y2="1">
      <stop offset="0" stop-color="#F6EEDB"/>
      <stop offset="1" stop-color="#EEDDBF"/>
    </linearGradient>
    <radialGradient id="seal" cx="50%" cy="45%" r="60%">
      <stop offset="0" stop-color="#9C3F2D"/>
      <stop offset="1" stop-color="#6E2A1E"/>
    </radialGradient>
    <filter id="shadow" x="-20%" y="-20%" width="140%" height="140%">
      <feDropShadow dx="0" dy="16" stdDeviation="24" flood-color="#1E1A16" flood-opacity="0.28"/>
    </filter>
  </defs>

  <rect x="0" y="0" width="1024" height="1024" rx="180" fill="url(#bg)"/>
  <rect x="70" y="70" width="884" height="884" rx="160" fill="none" stroke="#D2C1A1" stroke-width="8"/>

  <g filter="url(#shadow)">
    <circle cx="512" cy="540" r="280" fill="url(#seal)"/>
    <circle cx="512" cy="540" r="250" fill="none" stroke="#F1C87B" stroke-width="14"/>
  </g>

  <g opacity="0.9" stroke="#F6D28C" stroke-linecap="round">
    <line x1="362" y1="420" x2="662" y2="420" stroke-width="18"/>
    <line x1="362" y1="500" x2="662" y2="500" stroke-width="18"/>
    <line x1="362" y1="580" x2="662" y2="580" stroke-width="18"/>
    <line x1="392" y1="380" x2="392" y2="700" stroke-width="14"/>
    <line x1="472" y1="380" x2="472" y2="700" stroke-width="14"/>
    <line x1="552" y1="380" x2="552" y2="700" stroke-width="14"/>
    <line x1="632" y1="380" x2="632" y2="700" stroke-width="14"/>
  </g>

  <g>
    <path d="M512 318 L548 382 L620 396 L566 446 L578 518 L512 484 L446 518 L458 446 L404 396 L476 382 Z" fill="#F1C87B" stroke="#3A2B24" stroke-width="8"/>
  </g>
</svg>
