<svg xmlns="http://www.w3.org/2000/svg" width="1024" height="1024" viewBox="0 0 1024 1024">
  <defs>
    <linearGradient id="bg" x1="0" y1="0" x2="0" y2="1">
      <stop offset="0" stop-color="#F6EEDB"/>
      <stop offset="1" stop-color="#EEDDBF"/>
    </linearGradient>
    <clipPath id="mapClip">
      <rect x="140" y="180" width="744" height="660" rx="56"/>
    </clipPath>
    <filter id="shadow" x="-20%" y="-20%" width="140%" height="140%">
      <feDropShadow dx="0" dy="10" stdDeviation="18" flood-color="#1E1A16" flood-opacity="0.22"/>
    </filter>
  </defs>

  <rect x="0" y="0" width="1024" height="1024" rx="180" fill="url(#bg)"/>
  <rect x="70" y="70" width="884" height="884" rx="160" fill="none" stroke="#D2C1A1" stroke-width="8"/>

  <g clip-path="url(#mapClip)" transform="rotate(-7 512 512)">
    <rect x="120" y="160" width="784" height="704" rx="56" fill="#EADCC4" stroke="#C9B38E" stroke-width="6"/>

    <g stroke="#D8A451" stroke-width="14" opacity="0.95">
      <line x1="160" y1="240" x2="860" y2="240"/>
      <line x1="160" y1="320" x2="860" y2="320"/>
      <line x1="160" y1="400" x2="860" y2="400"/>
      <line x1="160" y1="480" x2="860" y2="480"/>
      <line x1="160" y1="560" x2="860" y2="560"/>
      <line x1="160" y1="640" x2="860" y2="640"/>
      <line x1="160" y1="720" x2="860" y2="720"/>
    </g>

    <g stroke="#E7C372" stroke-width="10" opacity="0.9">
      <line x1="220" y1="200" x2="220" y2="820"/>
      <line x1="320" y1="200" x2="320" y2="820"/>
      <line x1="420" y1="200" x2="420" y2="820"/>
      <line x1="520" y1="200" x2="520" y2="820"/>
      <line x1="620" y1="200" x2="620" y2="820"/>
      <line x1="720" y1="200" x2="720" y2="820"/>
    </g>

    <path d="M140 520 C240 440, 340 460, 430 520 C520 580, 610 600, 740 580 L740 720 C600 740, 470 700, 360 640 C250 580, 170 560, 140 560 Z" fill="#78B6C4" opacity="0.88"/>
    <rect x="620" y="260" width="120" height="80" rx="18" fill="#7BC57A" opacity="0.75"/>
    <rect x="260" y="620" width="110" height="70" rx="16" fill="#86C687" opacity="0.78"/>
  </g>

  <g transform="translate(720 170)" filter="url(#shadow)">
    <circle cx="120" cy="120" r="96" fill="#F6EEDB" stroke="#2F2A24" stroke-width="10"/>
    <circle cx="120" cy="120" r="68" fill="#E9D9BC" stroke="#2F2A24" stroke-width="6"/>
    <path d="M120 44 L142 120 L120 196 L98 120 Z" fill="#2F2A24"/>
    <path d="M44 120 L120 98 L196 120 L120 142 Z" fill="#2F2A24"/>
    <circle cx="120" cy="120" r="12" fill="#2F2A24"/>
  </g>
</svg>
